<svg xmlns="http://www.w3.org/2000/svg" viewBox="0 0 80 80"><path d="M40 1C18.46 1 1 18.46 1 40c0 9.23 3.214 17.707 8.575 24.387L7.318 78.17l12.573-4.75C25.77 76.96 32.65 79 40 79c21.54 0 39-17.46 39-39S61.54 1 40 1zm0 73.125c-6.214 0-12.296-1.687-17.59-4.88l-2.028-1.222-2.214.837-4.675 1.767.892-5.452.35-2.144-1.36-1.69c-4.905-6.12-7.5-13.49-7.5-21.34C5.875 21.188 21.185 5.88 40 5.88S74.125 21.183 74.125 40 58.817 74.125 40 74.125z" fill="#F8E706"/><path fill="#FDFEFE" d="M54.404 26.346l-15.72 15.72-10.86-10.86-7.04 7.042 10.86 10.86 7.04 7.04 7.04-7.04 15.72-15.72"/></svg>