<svg xmlns="http://www.w3.org/2000/svg" viewBox="0 0 120 120"><path d="M60 119C31.786 119 8.833 96.046 8.833 67.833S31.787 16.666 60 16.666s51.167 22.954 51.167 51.167S88.214 119 60 119zm0-91.625c-22.308 0-40.457 18.15-40.457 40.457 0 22.308 18.15 40.458 40.457 40.458s40.457-18.15 40.457-40.458S82.307 27.375 60 27.375z" fill="#FFF"/><path d="M49.19 57.117c.02-.02.038-.04.058-.058 1.548-1.53 2.955-2.58 4.197-3.36L31.392 31.65l-7.573 7.573L45.86 61.27c.775-1.232 1.825-2.623 3.327-4.153zm20.228 12.56c-.755 1.143-1.81 2.565-3.443 4.166-1.582 1.612-2.987 2.66-4.122 3.414l26.756 26.756 7.57-7.573-26.77-26.763zm-6.632.978c3.31-3.235 3.7-5.448 5.107-6.58 1.485-1.02 2.738-.246 8.937-4.024 6.156-3.51 7.72-10.83 10.01-12.19-2.347.21-8.932-4.89-17.132-.62-7.85 4.45-7.144 6.53-8.872 7.71-1.623 1.31-4.312 1.3-8.427 5.34-4.05 4.12-4.03 6.81-5.34 8.43-1.18 1.73-3.26 1.02-7.71 8.87-4.27 8.2.83 14.79.62 17.13 1.36-2.29 8.67-3.85 12.19-10.01 3.78-6.2 3-7.45 4.02-8.93 1.13-1.4 3.34-1.8 6.58-5.1zm-19.19 14.367c-2.02-.92-2.402-4.407-.526-7.582 1.87-3.178 5.087-4.503 6.87-3.182 1.792 1.325 1.7 4.494.067 7.273-1.64 2.78-4.384 4.42-6.41 3.5zm9.697-15.09c-1.724-1.397-1.245-4.838 1.345-7.424 2.586-2.59 6.027-3.07 7.424-1.345 1.405 1.73.528 4.774-1.73 7.04-2.264 2.257-5.31 3.134-7.04 1.73zM66.388 57.81c-1.32-1.783.004-5 3.182-6.87 3.175-1.876 6.663-1.494 7.582.526.926 2.027-.72 4.77-3.49 6.412-2.78 1.63-5.95 1.724-7.274-.068zM25.703 24.087l-1.478-2.19c.622.065 1.22.024 1.8-.124.577-.147 1.103-.38 1.577-.7.28-.19.504-.378.678-.57.174-.19.3-.375.38-.56.078-.182.11-.357.098-.524-.013-.17-.067-.33-.163-.47-.13-.19-.3-.33-.51-.41-.212-.08-.455-.12-.73-.12-.277 0-.584.03-.924.08-.34.053-.7.122-1.08.2-.98.2-1.81.198-2.5-.01-.68-.205-1.25-.634-1.69-1.29-.34-.51-.54-1.02-.58-1.523-.04-.504.04-.995.23-1.47.2-.477.49-.928.88-1.354.39-.43.85-.817 1.37-1.17.51-.35.99-.62 1.42-.827.44-.205.87-.356 1.29-.453l1.38 2.046c-.24 0-.49.02-.74.06-.254.05-.5.11-.746.19s-.48.18-.7.29c-.225.11-.426.223-.61.35-.25.17-.46.344-.633.53-.172.186-.3.37-.383.552-.085.183-.124.36-.12.534.004.178.057.34.16.49.11.16.25.28.426.35.174.07.38.11.62.12.236.01.51-.01.81-.05.3-.04.64-.1 1.006-.173.504-.1.975-.163 1.41-.19.44-.026.85 0 1.23.083.38.08.73.23 1.05.45.32.22.615.53.883.924.37.547.578 1.077.62 1.59.044.514-.034 1.006-.235 1.476-.2.47-.5.914-.91 1.332-.404.42-.87.807-1.393 1.16-.54.364-1.08.664-1.63.9-.544.237-1.06.384-1.537.44zm12.832-6.657c-1.56.66-3.048.693-4.463.094-1.414-.6-2.467-1.715-3.16-3.347-.73-1.723-.822-3.328-.275-4.816.547-1.48 1.644-2.58 3.29-3.27 1.557-.66 3.03-.68 4.423-.07 1.392.61 2.442 1.75 3.15 3.42.725 1.72.813 3.31.262 4.78-.55 1.47-1.626 2.55-3.227 3.23zm-3.78-9.206c-.86.365-1.408.98-1.64 1.84-.233.86-.123 1.824.328 2.888.458 1.08 1.073 1.826 1.847 2.24.773.413 1.57.445 2.39.097.847-.36 1.39-.95 1.627-1.77.238-.83.126-1.78-.334-2.86-.48-1.13-1.093-1.91-1.84-2.34-.748-.43-1.54-.46-2.377-.11zM51.643 1.35l-2.26 8.243.837 4.127-2.613.53-.828-4.077-5.21-6.778 2.98-.606 2.75 3.95c.05.07.2.37.46.89l.03-.01c-.01-.4.01-.73.06-.97l1.01-4.75 2.76-.56zm14.85 2.056l-4.177-.144-.1 2.905 3.837.132-.074 2.16-3.84-.14-.16 4.59-2.67-.09.41-11.83 6.84.23-.08 2.17zm10.825 11.97l-2.993-.653-1.15-3.37c-.086-.254-.172-.484-.256-.69-.09-.203-.18-.383-.28-.537-.1-.154-.21-.28-.33-.377-.13-.1-.27-.17-.43-.2l-.7-.16-.97 4.43-2.61-.57 2.52-11.57 4.13.9c2.8.61 3.98 1.96 3.52 4.06-.09.4-.24.76-.43 1.08-.2.31-.44.58-.73.81-.29.22-.61.4-.98.53s-.757.21-1.17.23l-.01.03c.16.09.31.21.443.37.137.16.26.33.377.52.117.19.224.4.32.61.097.217.18.425.257.627l1.44 3.896zM72.312 4.21l-.7 3.22 1.13.247c.56.12 1.043.058 1.452-.192.416-.253.677-.62.782-1.105.22-1.012-.275-1.65-1.485-1.912l-1.17-.258zm12.102 14.256l-6.57-2.69 4.486-10.96 6.32 2.59-.823 2.01-3.852-1.578-.998 2.436 3.584 1.468-.82 2.002-3.58-1.468-1.02 2.506 4.11 1.68-.82 2.002zm7.344 4.394l-6.072-3.68 6.138-10.126 5.84 3.54-1.127 1.857-3.56-2.15-1.365 2.26 3.312 2.01-1.12 1.85-3.314-2.01-1.4 2.32 3.79 2.3-1.12 1.85z" fill="#FFF"/></svg>