<svg xmlns="http://www.w3.org/2000/svg" viewBox="0 0 120 120"><path d="M60 119C27.467 119 1 92.533 1 60S27.467 1 60 1s59 26.467 59 59-26.467 59-59 59zM60 4.688C29.5 4.688 4.688 29.5 4.688 60S29.5 115.312 60 115.312c30.498 0 55.312-24.813 55.312-55.312S90.5 4.688 60 4.688z" fill="#FFF"/><path d="M12.287 52.832c0-2.788.44-5.274 1.316-7.46.878-2.185 2.065-4.035 3.562-5.55 1.497-1.514 3.252-2.667 5.266-3.46 2.02-.79 4.16-1.186 6.43-1.186 2.38 0 4.43.448 6.17 1.342 1.74.895 3.16 1.91 4.26 3.046l-4.18 4.698c-.82-.79-1.69-1.41-2.6-1.858-.91-.447-2.09-.67-3.53-.67-1.31 0-2.5.25-3.59.748-1.08.5-2.02 1.213-2.81 2.142-.79.93-1.4 2.065-1.83 3.408-.43 1.342-.64 2.858-.64 4.543 0 3.477.785 6.17 2.35 8.08 1.567 1.91 3.93 2.865 7.1 2.865.69 0 1.36-.086 2.016-.258.654-.172 1.187-.43 1.6-.775v-5.782h-5.58V50.51h12.28v15.486c-1.205 1.135-2.79 2.1-4.75 2.893-1.96.79-4.13 1.18-6.504 1.18-2.27 0-4.397-.37-6.376-1.11-1.98-.74-3.71-1.84-5.19-3.28-1.48-1.45-2.648-3.25-3.49-5.4-.846-2.15-1.267-4.64-1.267-7.46zm19.305 28.612h4.96v6.484c-.803.262-1.56.445-2.27.55-.71.106-1.435.16-2.175.16-1.887 0-3.328-.556-4.323-1.665-.995-1.107-1.493-2.7-1.493-4.777 0-2.018.58-3.592 1.74-4.72 1.16-1.13 2.76-1.693 4.8-1.693 1.29 0 2.52.256 3.71.77l-.88 2.12c-.91-.455-1.86-.684-2.85-.684-1.14 0-2.06.38-2.75 1.15-.69.77-1.03 1.8-1.03 3.1 0 1.35.28 2.39.84 3.11.56.71 1.37 1.07 2.43 1.07.56 0 1.12-.06 1.69-.17v-2.61H31.6l-.003-2.21zm7.938 7.022V75.962h2.65v10.313h5.072v2.19H39.53m20.072-12.503v8.09c0 .923-.208 1.732-.62 2.43-.413.696-1.01 1.23-1.79 1.597-.783.36-1.706.55-2.772.55-1.608 0-2.857-.41-3.746-1.24-.89-.83-1.334-1.95-1.334-3.38v-8.05h2.642v7.65c0 .96.194 1.67.582 2.12.388.45 1.03.67 1.925.67.86 0 1.49-.23 1.88-.68.39-.46.58-1.17.58-2.14v-7.64h2.64zm7.886 12.504h-2.653V78.17H61.44v-2.21h9.442v2.207h-3.396l.002 10.296m12.522.003h-7.203V75.962h7.202v2.17h-4.56v2.747h4.23v2.17h-4.23v3.22H80m13.703 2.19h-3.37L84.895 79h-.077c.107 1.67.164 2.864.164 3.577v5.884h-2.37v-12.5h3.342l5.432 9.37h.06c-.09-1.63-.133-2.77-.133-3.45v-5.92H93.7v12.51zm-49.645 16.6H41.45V92.55h7.167v2.17H44.06v3.226h4.242v2.17H44.06m9.655.147v4.798h-2.65V92.55h3.64c1.7 0 2.955.31 3.77.93.817.62 1.224 1.557 1.224 2.82 0 .736-.21 1.39-.61 1.963-.41.573-.98 1.023-1.72 1.347 1.88 2.813 3.1 4.63 3.67 5.45H58.1l-2.985-4.794h-1.41zm0-2.155h.853c.84 0 1.457-.14 1.857-.42.396-.28.595-.717.595-1.316 0-.592-.203-1.014-.61-1.264-.408-.25-1.04-.378-1.895-.378h-.8v3.377zm16.11 6.953h-7.2V92.55h7.2v2.17h-4.55v2.75h4.234v2.17h-4.23v3.224h4.55m9.81 2.19h-7.2v-12.5h7.2v2.17h-4.55v2.748h4.23v2.17h-4.23v3.224h4.55m.63-67.073h22.14v6.4H87.86v7.793h12.59v6.4H87.86V69.45h-7.584l-.003-33.66M67.1 38.305c2.987-2.596 2.503-6.46 2.503-6.46s-3.756-1.03-6.747 1.566c-1.823 1.59-2.352 3.64-2.49 5v-7.68c.248.07 3.847.94 6.735-1.57 2.99-2.59 2.51-6.46 2.51-6.46s-3.75-1.02-6.74 1.57c-1.82 1.58-2.35 3.63-2.49 5v-4.8c.84-.77 2.88-3 2.88-6.5 0-4.4-3.24-6.81-3.24-6.81s-3.23 2.41-3.23 6.81c0 3.5 2.04 5.73 2.88 6.51v4.9c-.12-1.36-.63-3.473-2.5-5.1-2.99-2.59-6.75-1.57-6.75-1.57s-.48 3.868 2.51 6.46c2.957 2.568 6.66 1.59 6.744 1.57v7.79c-.12-1.36-.63-3.48-2.5-5.1-2.99-2.592-6.747-1.57-6.747-1.57s-.49 3.87 2.5 6.46c2.96 2.57 6.66 1.59 6.744 1.57v7.79c-.12-1.36-.63-3.48-2.5-5.1-2.995-2.592-6.75-1.57-6.75-1.57s-.49 3.868 2.5 6.46c2.955 2.567 6.66 1.59 6.74 1.57v7.86c-.12-1.36-.63-3.48-2.5-5.1-2.99-2.593-6.75-1.57-6.75-1.57s-.484 3.868 2.505 6.46c2.958 2.566 6.66 1.59 6.745 1.57v7.79c-.12-1.36-.63-3.48-2.5-5.1-2.99-2.592-6.75-1.57-6.75-1.57s-.484 3.87 2.505 6.46c2.955 2.57 6.66 1.59 6.74 1.57v2.39c0 .2.16.36.36.36.2 0 .36-.16.36-.36v-2.4c.25.067 3.844.938 6.73-1.57 2.99-2.59 2.505-6.46 2.505-6.46s-3.757-1.02-6.75 1.57c-1.82 1.58-2.35 3.63-2.49 4.997v-7.68c.25.066 3.85.934 6.736-1.57 2.99-2.594 2.5-6.46 2.5-6.46s-3.752-1.025-6.743 1.57c-1.825 1.58-2.354 3.632-2.49 4.995v-7.76c.246.065 3.844.935 6.733-1.57 2.984-2.595 2.5-6.46 2.5-6.46s-3.75-1.025-6.74 1.57c-1.824 1.58-2.353 3.63-2.49 4.994v-7.68c.247.064 3.845.934 6.734-1.57z" fill="#FFF"/></svg>