<svg xmlns="http://www.w3.org/2000/svg" viewBox="0 0 120 120"><path d="M99.71 81.455c-.03-.423-.08-.84-.132-1.257l-.07-.602c-.022-.202-.045-.405-.075-.61-.107-.717-.244-1.424-.41-2.206l-.03-.153c-1.016-4.605-2.933-8.87-5.654-12.62l-.63-.92h-.07c-3.97-5.123-9.23-8.997-15.26-11.224-.77-.285-1.29-1.034-1.29-1.865V14.225c3.57-.05 6.46-2.975 6.46-6.664C82.56 3.95 79.61 1 76 1H43.99c-3.616 0-6.56 2.947-6.56 6.67 0 3.565 2.858 6.474 6.468 6.56V50c0 .83-.517 1.58-1.287 1.864-6.03 2.227-11.29 6.1-15.26 11.225h-.09l-.56.86c-2.76 3.81-4.68 8.07-5.69 12.66l-.05.24c-.15.7-.28 1.41-.39 2.13-.03.2-.05.4-.07.6l-.07.61c-.05.41-.1.82-.13 1.24-.07.9-.1 1.74-.1 2.573v.662c0 18.916 15.39 34.306 34.31 34.306h11.01c18.92 0 34.31-15.39 34.31-34.307V84c0-.845-.034-1.71-.1-2.57zM46.7 57.175l.238-.07c1.938-.56 3.29-2.36 3.29-4.378V14.512c0-3.576-2.852-6.498-6.466-6.61v-.575h32.476V7.9c-3.58.078-6.467 3.014-6.467 6.612v38.215c0 2.018 1.36 3.818 3.29 4.378l.25.072c4 1.157 7.66 3.178 10.75 5.91h-48.1c3.09-2.733 6.75-4.754 10.75-5.912zm43.337 27.517c0 13.527-11.005 24.53-24.53 24.53H54.493c-13.526 0-24.53-11.003-24.53-24.53v-.663c0-3.86.943-7.7 2.737-11.17h54.6c1.793 3.46 2.738 7.31 2.738 11.16v.66z" fill="#FFF"/></svg>