<svg xmlns="http://www.w3.org/2000/svg" viewBox="0 0 280 90"><path d="M261.054 35.136c4.77-.2 8.882-1.743 8.873-7.833-.007-5.13-3.17-8.46-7.88-8.454-4.472 0-6.97 3.21-7.383 7.76h-4.95c.705-7.7 5.052-12.77 12.444-12.78 7.214-.01 12.768 5.24 12.778 13.19.006 4.29-2.35 9.31-5.985 11.3 4.36 2.1 6.67 6.19 6.67 11.13.02 8.46-6.23 14.37-13.93 14.38-7.27.01-13.24-5.31-13.37-13.38l4.89-.01c.25 4.93 4.13 8.39 8.66 8.38 5.01-.01 8.76-4.376 8.75-9.698-.01-6.156-4.06-9.228-9.55-9.028v-4.99zm13.706-18.47c0-1.03.844-1.874 1.872-1.876 1.028 0 1.875.843 1.876 1.87 0 1.037-.843 1.876-1.87 1.878-1.03.002-1.876-.834-1.877-1.87zm1.877 1.594c.877 0 1.594-.72 1.592-1.597s-.72-1.594-1.6-1.593c-.88 0-1.6.72-1.6 1.597s.72 1.594 1.59 1.593zm-.713-2.63h.662c.375-.002.805.062.806.636 0 .35-.215.423-.342.487l.368.853h-.4l-.312-.796h-.423v.8h-.358v-1.98zm.36.86h.43c.168-.002.304-.08.304-.257 0-.175-.12-.263-.335-.262l-.4.01v.52z" fill="#FCED00"/><path d="M138.795 62.634V41.398c0-5.856 4.82-10.675 11.203-10.675 3.52 0 7.038 1.433 9.12 4.43 2.086-2.997 5.604-4.43 9.12-4.43 6.385 0 11.207 4.818 11.207 10.675v21.236h-5.734V42.7c0-3.972-2.21-6.51-5.6-6.51-3.71 0-6.12 2.083-6.12 7.424v19.02h-5.73v-19.02c0-5.34-2.41-7.423-6.12-7.423-3.38 0-5.6 2.54-5.6 6.51v19.94h-5.73zM244.087 32.18l-9.453 14.84 10.08 15.614h-6.37l-7.158-10.832-7 10.832h-6.32l10.03-15.615-9.664-14.84h6.582l6.372 10 6.322-10h6.58zM135.533 46.35c0 9.187-7.17 16.285-16.434 16.285-9.12 0-16.36-7.247-16.36-16.286 0-9.04 7.24-16.28 16.36-16.28 9.26 0 16.43 7.09 16.43 16.27zm-27.34 0c0 6.572 4.63 11.43 10.832 11.43 6.424 0 11.056-4.783 11.056-11.43 0-6.723-4.55-11.423-11.05-11.423-6.27 0-10.83 4.848-10.83 11.422zm91.017-16.2c-10.128 0-16.312 7.097-16.312 16.104 0 9.273 6.447 16.77 15.52 16.77 3.25 0 5.16-.456 7.133-1.866v-6.45c-1.78 1.674-3.98 2.792-6.54 2.792-6.05 0-10.32-4.934-10.32-10.784 0-5.985 4.01-11.045 10.39-11.045 5.26 0 10.26 3.03 10.26 8.94v17.76h5.79V45.14c0-9.073-6.18-14.99-15.91-14.99z" fill="#FFF"/><g opacity=".71" fill="#FCED00"><path d="M28.22 58.014c-1.705 1.447-3.217 3.034-4.495 4.72l6.656-4.297c-.28-.41-.55-.826-.81-1.253l-1.35.83zm24.56-48.34L53.12.59 51.945.55l-.307 9.634c.093-.052.193-.11.31-.188.285-.188.566-.283.833-.322zm-1.358 7.344l-.1 3.16c.036 0 .072.003.11.005h.96l.142-3.856c-.363.284-.714.486-1.112.69zM20.864 70.165l11.34-9.4c-.314-.356-.62-.72-.914-1.093l-9.823 7.824c-.055.13-.124.268-.23.388.023.167-.02.34-.127.477-.352.46-.31 1.1-.246 1.81zM63.386 2.317l-.814-.23-3.165 11.16c.265.29.474.594.648.913l3.33-11.843zM58.304 1.15l-.998-.156-1.517 9.77c.18.1.48.273.92.545L58.3 1.15zm5.148 14.62l4.843-11.693-.63-.263L62.74 15.51c.234.057.475.14.712.26zm-20.67 3.343c.084-.088.164-.174.24-.257l-5.36-16.244-1.547.524 5.633 16.2c.46-.158.85-.247 1.035-.223zm-2.813 1.07l.12-.076L32.78 4.49l-1.595.766 7.332 14.928h1.452zm-3.58 0L28.15 6.938l-1.595 1.017 7.983 12.228h1.857zm10.12-.137c-.06.044-.12.09-.18.137h.21l-.03-.137zM47.9.65l-1.33.114 1.153 12.703c.43-.42.806-.78 1.134-1.09L47.9.65zm1.426 17.48c-.337.197-.707.43-1.12.706l.124 1.347h1.17l-.17-2.054zM45.7 16.017l-2.98-14.69-1.455.305L44.6 17.09c.34-.37.68-.72 1.1-1.08zM73.64 36.86c5.52-1.96 13.444-4.75 18.997-6.623l-.025-.072c-5.524 1.95-13.415 4.62-19.038 6.504l.065.19zm-1.055-2.637c9.48-4.713 13.102-6.533 18.03-8.88l-.033-.07c-4.852 2.41-8.445 4.102-18.114 8.702.04.082.078.165.117.248zm-1.554-2.817c.08.112.15.226.22.34l5.89-3.892-.34-.08-5.76 3.632zM87.98 20.66c-.82.545-1.504.992-2.747 1.784l-.02.08c1.25-.816 1.963-1.27 2.807-1.8l-.04-.063zM74.79 42.45c7.962-.785 17.02-1.613 20.062-1.874l-.007-.076c-3.042.298-12.06 1.128-20.067 1.81l.012.14zm-.41-2.83c9.808-2.184 17.313-3.787 19.676-4.28l-.016-.073c-2.06.458-9.357 2.045-19.695 4.192.01.05.024.1.035.16zm-7.46-22.44l.906-1.616c0-.167.01-.345.05-.532.145-.673.667-1.453 1.425-2.098l3.67-6.527-.45-.26L66.2 17.16c.27-.01.52 0 .73.02zm.79 10.11l.892-.96c-.213.158-.406.297-.552.4-.214.152-.383.27-.527.377.062.06.125.12.187.182zm1.598 1.755c.102.123.2.248.3.373l3.495-2.962c-.12-.07-.24-.14-.357-.213l-3.438 2.802zm8.254-12.358l3.65-3.93c-.052-.052-.104-.11-.15-.173l-3.532 3.678c.014.134.022.26.03.374 0 .02 0 .034.002.05zm-2.45-4.376l2.215-3.03-.3-.22-2.292 3.06.077.04c.097.05.198.11.3.16zM78.36 22l4.865-4.126c-.036-.03-.066-.063-.092-.1l-5.03 4.102c.087.04.173.08.256.123zm-3.742 26.174c5.448.787 15.53 2.287 19.92 2.97l.01-.074c-4.022-.583-13.888-2.077-19.913-3.02-.005.042-.01.083-.017.124zM58.275 67.71l6.277 18.737.247-.08-6-18.844c-.18.064-.36.127-.54.187zm-5.803 1.192l1.55 19.576.56-.042L53.2 68.832c-.242.027-.484.05-.728.07zm11.57-4.036c8.87 13.266 9.614 14.355 11.018 16.566l.063-.04c-1.46-2.174-2.144-3.27-10.75-16.752-.11.076-.22.152-.33.226zm-8.627 3.617l3.937 19.3.4-.078-3.707-19.36c-.208.048-.418.095-.63.138zm10.984-5.41c6.93 8.105 9.46 11.037 12.91 15.204l.06-.05c-3.45-4.032-5.73-6.82-12.77-15.337l-.21.182zm-11.44-47.03l-.69 4.415c.32.05.64.108.96.17l.57-3.62c-.29-.302-.56-.63-.85-.964zM61.01 66.6l8.537 17.89.112-.05-8.21-18.058-.44.218zm12.1-12.882c5.11 2.066 14.377 5.855 18.602 7.62l.03-.07c-4.402-1.782-13.63-5.6-18.582-7.67-.016.04-.032.08-.05.12zm.92-2.73c5.323 1.44 15.116 4.13 19.402 5.34l.02-.074c-3.946-1.068-13.516-3.723-19.39-5.384-.01.04-.02.08-.032.12zm.845-5.8c0 .044-.003.087-.004.13 5.6.128 15.58.397 20.15.554v-.076c-4.53-.105-14.55-.413-20.14-.607zM70.33 58.773C78.153 64.4 84.436 69 86.538 70.557l.045-.06C84.81 69.22 78.68 64.76 70.426 58.64l-.096.133zm1.543-2.45c7.182 3.96 14.963 8.32 17.53 9.78l.037-.067c-2.506-1.384-10.23-5.703-17.498-9.836l-.07.123zm-3.373 4.71c4.318 3.96 10.426 9.59 14.658 13.603l.052-.055c-4.3-3.95-10.365-9.69-14.575-13.7l-.135.15zm-30.42 4.575l-9.803 16.65 1.183.69 9.65-16.764c-.348-.184-.69-.376-1.03-.576zm-21.503-.442l-3.32 2.04 1.022 1.624 2.02-1.306c.08-.905.3-1.688.27-2.36zm.14-4.572h-1.855l-4.074 1.865.866 1.83 4.366-2.13c.1-.6.333-1.17.698-1.57zm.543 11.664c-.255-.29-.445-.608-.59-.94l-.383.306 1.134 1.396.36-.296c-.22-.168-.4-.338-.51-.467zm2.858-52.074l-3.703-2.85-1.303 1.74 1.527 1.11h3.47zm13.188 41.744l-13.47 13.718 1.2 1.157L34.29 62.85c-.336-.3-.664-.607-.984-.923zm-6.482-41.744l-6.916-6.78-1.45 1.516 5.66 5.264h2.706zm13.94 46.793L33.042 84.75l1.112.48 7.62-17.84c-.34-.13-.677-.27-1.01-.413zM43.59 68l-5.514 18.638 1.006.296 5.475-18.673c-.325-.08-.647-.16-.966-.26zm-.285 19.9l.872.147 3.24-19.253c-.303-.038-.602-.082-.9-.13L43.304 87.9zM32.068 20.184L23.84 9.924l-1.547 1.27 7.573 8.99h2.202zm3.513 43.733l-11.72 15.29 1.22.92 11.53-15.464c-.34-.24-.69-.49-1.02-.747zM48.65 88.52l.72.032.943-19.568c-.273-.002-.546-.008-.82-.02L48.65 88.52zM35.605 22.367H.612l34.508 1.158m.485 19.187H.612l34.288 1.17m-1.215 1.907H.612l32.245 1.17m-1.377 2.05H.612l29.77 1.16m-5.6 1.97H.612l22.99 1.17m-1.486 2.42H.612l20.906 1.17m-1.27 1.85H.61l16.04 1.05m26.014-26.23H.612l41.227 1.17m-1.2 2.01H.61l39.398 1m13.11-15.47h-7.103l6.55 1M38.443 39.64H.613l36.41 1.17m14.653-15.63h-5.913l5.373.805m-3.38 4.677H.61l44.162 1.22m5.168-3.916H.612l48.416 1.064M35.32 24.784l-34.71-.24 35.502 1.364"/><path d="M21.174 64.52c-.334-.154-.643-.335-.808-.713-.233-.53-.31-1.136-.2-1.707.118-.597.73-1.112.79-1.658.065-.563-.668-.077-.89-.04-.622.11-1.213-.26-1.735.243-.38.372-.41.998-.68 1.445-.06-.436.06-.93.08-1.366-1.06.15-1.39 2.414-.9 3.148.81 1.19.14 2.658.1 3.942-.04 1.36-.13 2.927.83 4.02.3.337 1.04.87 1.5.895C18.8 71.9 18 71 17.94 69.9c.03.57 1.086 2.3 1.644 2.47.545.16.674-.37.714-.84.1-1.19-.45-2.568.326-3.578-.427-.055-.758-.41-1.15-.465.36.05.882.223 1.23.02.216-.128.277-.653.39-.7-.38.16-.97.02-1.29-.278 1.35.43 2.382-.79 2.58-2.03-.09.56-.96.1-1.19 0zM47.21 53.885c-.116.007-.244-.027-.336-.09-.074-.05-.166-.2-.264-.092-.168.183.08.572-.43.858.61-1.22.027-1.27-.113-1.8-.16-.6.082-.93.25-1.66.05-.21.007-.44.11-.65.042-.08.107-.09.087-.19-.034-.18-.224-.17-.356-.14-.226.07-.37.18-.62.12-.37-.08-.663-.25-1.043-.1-.284.11-.477.33-.56.62-.08.27-.066.65-.227.89-.07-.48-.177-.96.19-1.35-1.735.04-.786 2.94-.822 4.527-.017.735-.223 1.436-.146 2.175.02.184.123 2.674 1.38 3.463.225.14.47.2.72.13.33-.092.39-.34.39-.34-.225.07-.357-.095-.554-.19 1.277.624.695-2.304.807-2.776.012-.05.28-.55.203-.563-.45-.07-.416-.404-.712-.63.288.22.58.36.937.24 0-.04.07-.41.09-.38-.22-.25-.51-.2-.67-.566.18.397.85.3 1.09.088.16-.132 1.21-1.417.91-1.615-.05-.03-.24.06-.3.067zm36.396-43.62c.178.433.363.87.614 1.27.234.37.397.72.397.72.025.03.04.057.088.056.082 0-.1-.91-.114-.97-.09-.44-.21-.88-.37-1.3-.14-.37-.23-.75-.39-1.13-.08-.21-.23-.26-.4-.12-.17.15-.18.3-.08.55.1.25.17.7.27.94z"/><path d="M88.603 11.118c-.23-.17-.452-.09-.6.156-.284.473-.513.953-.854 1.39-.21-.35-.34-.59-.3-1.002.03-.367.11-.714.17-1.076.08-.524.11-1.062.08-1.594-.01-.102.03-.222-.18-.296-.25-.002-.28.14-.3.23-.11.652-.19 1.308-.26 1.963-.04.28 0 1.24-.41 1.31-.5.08-.31-1.19-.29-1.39.07-.58-.06-1.11-.15-1.67-.03-.17-.02-.86-.33-.78-.33.08-.24.36-.23.54.01.21.03.43.03.65.004.23-.025.47-.01.7.104 1.98.253 2.16-.15 2.232-.33.06.09 1.555-.46 2.155-.016.014-.03.03-.05.043-.31.255-.663-.18-.8-.52-.02-.047-.127-.247-.083-.276.01 0 .166.04.19.045.53.05.18-.568.364-.63-.023.01-.05.01-.08.02-.07.015-.15.063-.225.07-.17.016-.26-.164-.35-.274-.12-.15-.26-.26-.335-.445-.06-.156-.03-.245-.15-.42s-.24-.353-.43-.46c-.254-.14-.6-.15-.837.036-.34.27.41.66.52.86.284.548.27.52.31 1.077.05.675-.137.158.96 1.81.34.51.244 1.2.265 1.78.21-.184.25-.78.6-.837.656-.1.005 1.285-.08 1.474-.364.824-.2.985-1.39 3.2-.32.595-.69 1.16-.997 1.76-.16.31-.32 1.265-.76 1.28-.78.03.496-2.314.64-2.553-.556.937-2.08 1.383-2.105 2.635.066-1.02-1.185-1.66-1.98-1.993-1.03-.43-2.25-.514-3.31-.16.013-.007-.22-.51-.257-.566-.084-.135-1.44-1.466-1.85-1.686-.8-.436-2.31-1.46-4.2-1.286 2.02-.187 4.656.46 5.72 2.09.1.155.153.34.276.483.11.12.24.31.4.353.15.04.21-.085.28-.185.067-.093.16-.18.17-.3-.04-.01-.06-.05-.08-.085.17.03.28.177.435.226.48.15.49.117.58-.1 0 0-.02-.32.227-1.77.02-.1.023-.157.1-.216.1-.08.19-.164.3-.233.21-.13.406-.45.425-.57.037-.21-.21-.5-.382-.606.1-.12.29 0 .38.073.107.08.21.223.27.036.06-.19-.01-.378-.054-.56-.16-.63.07-1.288-.56-2.31-.08-.13-.155-.28-.178-.43-.067-.42.56.282.84.593-.066-.6-.59-1.11-1.038-1.468-.475-.38-1.01-.68-1.546-.965-1.875-.98-4.114-.3-5.373 1.33-.25.33-.546.71-.634 1.12-.115.53.086 1.07-.18 1.577-.223.415-.636.68-.955 1.02.276.08 1.025-.146 1.28-.31.237-.15.35-.367.54-.546.25-.236.585-.334.84-.56-.107.09-.18.337-.26.46-.24.38-.64.886-.984 1.175-.16.136-.46.506-.69.35-.585-.406-.89-.556-1.85-.536-.67.014-1.33.166-1.875.575-.723.55-.97 1.03-1 1.22.097 0 .19-.064.278-.104 1.017-.48 1.74-1.044 2.66-.743-.29.046-1.436.53-1.71 1.295-.04.12-.345.746-.23.86-.13-.13-.32-.15-.49-.182-.29-.06-2.07-.6-3.78.5-.93.6-1.375 1.71-1.505 2.43-.155-.31.05-1.22.16-1.537.29-.845.98-1.586 1.81-1.92.403-.16.77-.04 1.13-.306.55-.4.92-1.19 2.125-1.718.24-.1.49-.19.747-.23.16-.028.496-.175.64-.08-.183-.12-.442-.18-.66-.2-.07 0-.15.02-.205-.02 0 0-.22-.6-.73-1.007-.473-.38-1.07-.548-1.663-.608-.405-.04-.855.074-1.22-.143-.016.24.034.512-.015.75-.03.14-.27.48-.27.555.007-.35-.22-.858-.325-1.19-.42-1.327-.81-2.22-2.02-3.03-2.07-1.387-2.805-1.746-2.805-1.746-.82-.604-.66-.43-1.62-.83-.42-.173-.98-.11-1.356.14-.95.626-.777.1-4.36 3.62.18.015.133.027 2.293-1.79.66-.56 1.36-1.03 2.18-1.32.64-.23-.18.97-.637 1.423-1.396 1.394-4.24 2.8-5.47 3.86-1.52 1.313-2.62 2.884-3.676 3.826l-.05-.05c.05-.11.09-.22.14-.324.124-.25-3.194.94-3.096 1.72-.03-.174-1.02.15-1.11.17-.53.158-1.68.47-2.017.95-.394.57.365.34.65.24.19-.064 2.416-.98 2.11-.605-.05.06-.087.13-.145.174-.36.27-.71.553-1.088.79-.43.265-1.12.45-1.245 1.02.843.29 1.603-.364 2.33-.67.103-.044.255.025.386.043-.054.1-.09.22-.172.29-1.37 1.17-1.584 1.134-1.63 1.678-.024.262.246.5.45.37.35-.218.746-.416 1.01-.72.3-.35.654-.67 1.04-.93.685-.466.44.425.254.794-.317.62-.83 1.11-1.15 1.714-.08.15-.24.27-.047.464.2.2.38.15.538-.02.307-.325 1.43-1.65 1.736-2.06.19-.26.33-.59.58-.775.81-.595-.063-2.16.82-2.564.09.66-.21 1.09.29 1.7.31.39.02.98.81 1.687.16.14.377.26.58.15.395-.22-.09-.665-.18-1.24-.04-.254.05-.51.043-.768-.012-.937.704-1.064.154-2.463-.02-.06-.01-.18.03-.22 3.877-3.153 5.61-3.79 6.55-4.29 1.13-.6 1.09-.54 2.09-1.75.31-.37.375-.712.84-.34.855.69 1.53 1.555 2.254 2.37.385.43 1.037.75 1.276 1.29.22.51 0 .67-.28 1.14-.29.495-.51 1.046-.48 1.63.01.17-.03.43.123.495.094.04.297-.124.35.04.007.023-.366.955-.37 1.11.24-.09.854-1.186.857-1.33.01-.32-.24-.7-.2-1.09.034-.41.13-.735.41-1.05 1.77-1.99 4.45-.9 4.677-.906-.656.01-1.157-.27-1.857-.082-.467.124-2.19.45-2.43 1.407-.09.367.156.367.44.36.87-.02 1.35.13 1.86.13-.652.145-1.934.09-3.37 2.6-.06.1-.11.31-.2.39-.126.11-.444.17-.614.28l-.21.14c.07-.072.134-.15.19-.24.186-.283.552-1.22.2-1.5-.32-.25-.97.59-1.206.77-1.095.84-1.706 2.21-2.256 3.45-.22.49-.42.94-.547 1.46-.115.47-.455.96-.79 1.32.345-.37.733-.73 1.03-1.14.42-.57.663-1.17.97-1.74.25-.467.546-.91 1.01-1.31.25-.21.55-.397.83-.6-.757.74-1.29 1.69-1.775 2.633-.476.926-1.01 1.843-1.58 2.716-.27.41-.57.8-.817 1.22-.384.65-.76 1.147-1.32 1.667-.104.1-.25.19-.32.32.555-.064 1.058-.08 1.6.076.328.09.61.28.93.406-.273-.4-1.09-.74-1.55-.83.21.04.48-.167.68-.23.32-.105.67-.2 1.002-.28 1.11-.26 2.2-.756 3.36-.687-.03.27-.4.41-.6.52-.58.31-1.24.66-1.617 1.23-.43.646.055 1.202.33 1.79.066.143.45.884.635.876-.594.025-.953-.726-1.302-1.09-.507-.53-2.22-.61-2.928-.37-2.34.81-5.13 1.38-6.257 4.113-.1.24-.42.402-.67.42-.05-.43.25-1.04.385-1.46.83-2.6 2.99-3.9 4.9-3.91-1.73-.023-3.95.67-5.05 2.107-.76.98-.91 1.53-1.12 2.71-.1.58-.67.98-1.36 1.39-.75.44-4.13 3.96-4.08 4.78.06-.02.13-.027.175-.06 1.965-1.4 1.684-2.218 5.34-3.566.85-.31 2.06-.82 2.978-.76-.824.47-5.325 1.887-7.625 5.32-.174.263-.345.554-.48.837.067.046.12.1.19.14-.066.136-1.854 3.01-2.017 3.06 0 0 .36-1.39.92-2.436.21-.395.596-.773.213-1.216-.113-.13-.18-.288-.284-.42-.045.14-.11.26-.2.38-.464.602-3.04 5.72-2.92 5.553-1.14 1.6-3.6 2.556-4.25 2.377-.84-.23.857-1.63 2.76-2.15.25-.07.546-.13.8-.11.34-.88.95-1.667 1.228-2.58-.143.18-1.164 1.883-1.584 2.163-.03.02-2.807.58-4.518 1.49-.68.36-1.746.956-2.02 1.73-.143.4.01.684-.27 1.06-.27.365-.57.71-.806 1.1-.35.595-.693 1.197-1.06 1.786-.16.26-1.76 1.936-2.32 2.356-.55.41.35.257.68.08 1.286-.52 4.026-4.41 4.84-4.63 0 0-.33.725-3.87 4.355-1.254 1.29-1.66 1.57-1.914 1.98-.2.32-.26.72-.42 1.065-.24.515.002.9.51 1.467.22.25.334.25.552-.01 3.065-4.846 7.89-8.896 13.46-11.586.044-.03.113-.03.17-.043.46-.09.235.206 1.91-1.185.156-.13.366-.31.377-.474.046-.7.535-.28 1.984-1.162.137-.08.517-.23.584-.37.077-.153-.185-.343-.28-.45-.42-.49-.894-.89-1.2-1.54.36.45.81.947 1.28 1.29.213.16.39.39.69.38.24-.004 2.504-1.17 3.09-1.594.65-.47 3.99-3.298 4.03-3.34.42-.45.65-.978 1-1.47.454-.638 1.455-1.854 2.356-1.67-.76.47-2.79 1.874-1.51 2.76.27.186 3.155 1.175 3.25 1.19 2.48.418 2.87-.17 5.52.087.45.045 1 .288 1.427.105.45-.195.737-.636 1.126-.91-.334.26-.62.636-.867.98.24.01 1.615.44 1.72.19-.21.51-1.038.224-1.448.15-.125-.02-1.244-.083-1.41-.015.124.057.2.147.304.235.097.083.29.22.273.38-.03.245-1.8.754-2.35.63-.096-.02-.16-.037-.22-.118-.1-.14.01-.326.13-.425.373-.32 1.08-.39 1-.84-.33-.05-.676-.024-1.007-.026-1.206-.008-2.54.324-3.413 1.2-1.16 1.16-2.458 2.11-4.016 2.71-.99.38-1.77 1.56-2.966 1.31-.39-.084-.303.315-.36.55-.15.6-1.065 1.172.553 2.31.675.47 1.058-.16 1.64-.48 7.66-4.196 8.06-3.186 14.17-4.93 1.05-.3 1.785-.62 3.26-.642.1 0 1.5-.977 1.56-1.155.36-1.16.19-2.227-.91-3.115-.035-.023-3.166-1.993-3.15-2.03-.196.61-.637 1.44-1.227 1.74.32-.44 1.12-1.34.96-1.945-.05-.184-1.865-2.15-4.485-3.095-.545-.2-2.692-1.18-2.922-.13-.105.49.51 1.2.784 1.596-.41-.38-.81-.833-1.19-1.23-.78-.804.715-1.75.68-1.79-.11-.145-.083-.233-.263-.31.123-.41 1.21-1.544 1.634-1.644-.265.06-.544.14-.73.34.24-.84 1.57-1.14 2.266-1.46.593-.28 1.235-.483 1.78-.854.267-.18.467-.37.65-.638.107-.156.18-.55.37-.636-.21.098-.43.09-.66.11.483-.42 1.053-.83 1.664-1.105.84-.38 1.61-.804 2.25-1.48.592-.61 1.08-1.33 1.765-1.852.63-.48 1.338-.914 1.93-1.44.255-.225 1.128-.89 1.04-1.254-.03-.13-.38-.295-.483-.357-.456-.27-.976-.607-1.526-.64.44-.21 1.082.16 1.5.316 1.326.5 2.94 2.09 4.576 2.86 1.644.778 2.89.88 3.75 1.15 2.165.677 3.565.825 3.75.745.26-.115.43-.46.65-.63.204-.16.364-.37.523-.574.11-.14.3-.34.3-.53-.19.18-.36.36-.597.487-.1.054-.29.143-.41.132 0-.22.58-.617.89-.9 1.46-1.35 1.793-4.218 2.34-6.39.14-.567.275-1.13.413-1.69l.25-1.016c.08-.335.14-.716.356-.99.094-.12.22-.2.34-.297.15-.123.222-.33.313-.503.284-.545.337-1.17.63-1.707.35-.64.624-1.32 1.076-1.897.12-.15.23-.32.02-.473zm-13.675 8.58c.02-.074.012-.223.076-.276.254-.21.23.73-.57 1.258.3-.397.375-.564.494-.98zm-.98-4.108c.178.075.284.32.242.507-.534-.582-1.797.244-1.7 1.395 0 .012.023.275 0 .262-.256-.15-.327-1.163.5-1.895.235-.21.643-.41.958-.27zm-4.088-.704c-.55-.23 1.6-2.118 3.432-1.55-.285-.09-1.185.095-1.577.255-1.03.42-1.502 1.45-1.855 1.3zm-15.09-.536c-.15-.22-.622-.874-.272-1.116.773-.533.93 1.677 3.064 3.91.08.082.18.183.207.284-.78-.42-2.51-2.35-3-3.078zM38.138 49.34c-.363.237-.625.283-.592.6.038.363-.343.36-.607.264-.19-.067-.32-.25-.17-.39.29-.287 1.21-.58 1.57-.69.1-.03.21-.04.31-.07-.16.13-.35.175-.52.286zm-.258-2.29c-.22.313-.448.733-.76.962.12-.463 1.736-3.117 3.858-4.768.22-.17.464-.32.7-.474-3.04 2.93-2.597 2.558-3.798 4.28zm15.91-7.665c-.06.315.003 1.165-.602.656-.75-.63.55-1.82 1.118-2.05-.207.54-.425.89-.517 1.4zm-4.495 11.37c-.502.388-1.128.656-1.424 1.25-.06.134-.14.247-.29.136-.14-.1-.11-.37-.06-.52.13-.37.53-.45.85-.61 1.14-.55 1.94-1.32 2.97-1.79.21-.09.52-.13.7-.25-.91.6-1.87 1.12-2.73 1.79zm15.495-8.022c.187.13.36.283.55.406.335.21.687.43.913.77.12.18.205.38.302.58.075.15.02.36-.138.44-.093.05-.155.04-.23-.03-.057-.05-.103-.12-.133-.19-.074-.17-.12-.34-.184-.51-.038-.1-.083-.2-.143-.298-.167-.26-.39-.478-.592-.708-.175-.2-.334-.43-.538-.6.065.032.134.064.193.105zm-7.773-17.208c-.373.264-.714.57-1.026.904-.47.5-1.09 1.92-1.91 1.9-.05-.45.3-.96.46-1.35.33-.82 1.07-2.63 1.79-3.21 1.88-1.51 1.05-.04 1.66.97.05.08.12.16.15.25-.31.1-.35-.03-1.11.51zm7.862 2.227c-.24.377-.66.954-.85.422-.38-1.115 1.75-1.963 1.76-2.807-.02 1.016-.5 1.715-.92 2.385zm-1.83-3.606c-1.24.172-2.27.142-1.83-.486.33-.473 1.01-.107 1.43-.034.86.15 3.42-.26 3.46-.285-.62.41-2.46.72-3.07.81zm9.15-1.106c-.72-.07-.21-.33-.09-.743.36-1.246-2-2.55-3.41-2.586 1.54-.49 4.95 1.6 3.7 2.65-.74.62.01.33 1.01.49 1.24.19 3.46 1.56 4.04 2.25-1.69-1.09-4.54-2.1-5.26-2.04zm5.77.42c-.11.6-2.24-.54-2.23-.72.01-.37 2.34.09 2.23.725zm4.29 1.19c-.04.06-.1.16-.18.26-.14.18-.33.34-.49.22-.35-.256.28-.823.44-.99.4-.412.67-.942 1.03-1.37-.25.635-.44 1.305-.81 1.88z"/></g></svg>