<svg xmlns="http://www.w3.org/2000/svg" viewBox="0 0 120 120"><path d="M19.547 45.35h-1.845l-2.777-9.865-.056.01-1.97 9.855h-1.85l2.68-13.438h1.85l2.78 9.827.05-.01 1.95-9.82H22.2l-2.68 13.44zm11.67-5.5c-.362 1.802-1.017 3.2-1.964 4.197-.947.997-2.09 1.495-3.433 1.495-1.236 0-2.204-.558-2.902-1.675s-.884-2.49-.558-4.12l.47-2.325c.357-1.802.994-3.203 1.91-4.203.917-1 2.033-1.5 3.35-1.5 1.26 0 2.254.56 2.98 1.68s.93 2.5.61 4.12l-.462 2.31zm-1.373-2.335c.258-1.316.195-2.365-.19-3.146s-1.003-1.18-1.858-1.18c-.72 0-1.356.38-1.91 1.16-.553.77-.957 1.79-1.208 3.05l-.47 2.34c-.266 1.33-.22 2.39.138 3.17.356.77.944 1.16 1.762 1.16.75 0 1.418-.39 2.002-1.17s1.006-1.8 1.264-3.08l.47-2.333zm12 4.438H37.84l-1.605 3.396h-1.873l6.616-13.44h1.78l1.21 13.43h-1.873l-.25-3.4zm-3.294-1.486h3.184l-.406-5.72-.055-.01-2.723 5.73zm9.466-.913l-1.153 5.795H45.01l2.684-13.43h4.014c1.138 0 1.992.33 2.56 1 .57.67.735 1.6.495 2.81-.154.75-.435 1.39-.844 1.9-.41.51-.94.91-1.6 1.18.57.24.95.63 1.14 1.17.19.54.21 1.2.06 1.97l-.23 1.17c-.1.43-.14.82-.13 1.16s.09.62.25.82l-.05.212h-1.91c-.16-.206-.23-.51-.2-.918.02-.408.08-.84.18-1.305l.23-1.137c.155-.795.117-1.4-.114-1.817-.23-.415-.625-.623-1.185-.623H48zm.286-1.42h2.067c.65 0 1.2-.21 1.64-.63.44-.418.73-.995.88-1.728.16-.813.13-1.422-.11-1.826-.24-.403-.7-.605-1.37-.605h-2.16l-.96 4.788zm15.628-4.78h-3.256l-2.4 11.995H56.43l2.4-12h-3.24l.286-1.44h8.34l-.285 1.44zm.7 11.996h-1.846l2.686-13.436h1.845L64.63 45.35zm9.964-5.98H69.88l-1.19 5.978h-1.855l2.685-13.435h7.335l-.286 1.44h-5.49l-.93 4.594h4.71l-.29 1.422zm2.794 5.98h-1.846l2.686-13.436h1.845L77.388 45.35zm10.98-4.237l.02.055c-.36 1.396-.92 2.475-1.68 3.234-.764.76-1.757 1.14-2.98 1.14-1.207 0-2.16-.554-2.857-1.66-.69-1.108-.88-2.474-.54-4.098l.48-2.4c.36-1.8.98-3.196 1.86-4.184.88-.987 1.95-1.48 3.2-1.48 1.21 0 2.14.416 2.81 1.25s.91 1.95.74 3.353h-1.84c.11-1.01.02-1.79-.29-2.34-.3-.55-.84-.825-1.6-.825-.66 0-1.27.394-1.82 1.18-.55.79-.95 1.797-1.19 3.028l-.48 2.417c-.27 1.323-.25 2.376.07 3.16.32.784.86 1.177 1.64 1.177.67 0 1.22-.243 1.64-.73s.78-1.245 1.076-2.278h1.77zm2.645 4.237h-1.846l2.686-13.436h1.845L91.013 45.35zm8.865-3.397h-4.004L94.27 45.35h-1.874l6.616-13.436h1.78l1.21 13.435h-1.873l-.26-3.4zm-3.294-1.486h3.184l-.406-5.72-.055-.01-2.723 5.73zm8.6 3.46h4.963l-.286 1.42h-6.81l2.69-13.433h1.86l-2.4 12.014zm-85.36 18.86l.02.054c-.358 1.4-.918 2.48-1.68 3.24-.763.76-1.756 1.14-2.98 1.14-1.206 0-2.158-.55-2.856-1.66-.698-1.11-.88-2.47-.55-4.1l.48-2.4c.358-1.8.976-3.19 1.856-4.18.88-.98 1.947-1.48 3.202-1.48 1.206 0 2.14.42 2.805 1.25s.91 1.95.74 3.36h-1.83c.11-1.01.02-1.79-.29-2.34-.3-.55-.84-.82-1.6-.82-.66 0-1.27.4-1.82 1.18-.55.79-.95 1.8-1.19 3.03l-.48 2.42c-.27 1.32-.25 2.38.07 3.16.32.79.86 1.18 1.64 1.18.67 0 1.22-.242 1.64-.73s.78-1.244 1.08-2.28h1.77zm10.268-1.267c-.363 1.804-1.018 3.203-1.965 4.2-.947.996-2.09 1.494-3.433 1.494-1.236 0-2.204-.558-2.902-1.675s-.884-2.49-.558-4.12l.47-2.33c.357-1.8.994-3.21 1.91-4.21.917-1 2.033-1.5 3.35-1.5 1.26 0 2.254.56 2.98 1.69.726 1.12.93 2.5.61 4.12l-.462 2.31zm-1.374-2.333c.258-1.316.195-2.365-.19-3.146s-1.003-1.17-1.858-1.17c-.72 0-1.356.39-1.91 1.16-.553.77-.957 1.79-1.208 3.05l-.472 2.35c-.265 1.34-.218 2.4.14 3.17.355.78.943 1.17 1.76 1.17.75 0 1.42-.39 2.003-1.16s1.006-1.8 1.264-3.07l.47-2.33zm4.095 6.413h4.964l-.286 1.42h-6.81l2.69-13.434h1.86L32.82 65.6zm14.844-4.08c-.363 1.804-1.018 3.203-1.965 4.2-.947.996-2.09 1.494-3.433 1.494-1.24 0-2.21-.558-2.91-1.675s-.89-2.49-.56-4.12l.47-2.33c.35-1.8.99-3.21 1.91-4.21.91-1 2.03-1.5 3.35-1.5 1.26 0 2.25.56 2.98 1.69.72 1.12.93 2.5.61 4.12l-.46 2.31zm-1.374-2.333c.258-1.316.195-2.365-.19-3.146s-1.003-1.17-1.858-1.17c-.72 0-1.356.39-1.91 1.16-.553.77-.957 1.79-1.208 3.05l-.47 2.35c-.266 1.34-.22 2.4.138 3.17.356.78.944 1.17 1.762 1.17.75 0 1.418-.39 2.002-1.16s1-1.8 1.26-3.07l.47-2.33zm4.962 2.04l-1.153 5.794h-1.854l2.685-13.42h4.014c1.138 0 1.992.34 2.56 1.01.57.67.735 1.61.495 2.82-.154.76-.435 1.39-.844 1.91-.41.51-.94.91-1.592 1.19.572.24.954.636 1.145 1.18.19.545.22 1.2.07 1.97l-.23 1.174c-.09.43-.13.82-.12 1.16s.1.62.26.82l-.04.21h-1.91c-.16-.2-.22-.51-.2-.912.03-.403.09-.84.19-1.3l.23-1.136c.15-.796.117-1.4-.114-1.82-.23-.41-.626-.62-1.186-.62h-2.38zm.286-1.42h2.07c.66 0 1.21-.21 1.65-.63.44-.42.74-.996.88-1.73.17-.812.13-1.42-.11-1.825-.24-.403-.69-.605-1.36-.605H52.5l-.96 4.788zm13.04 4.14c.14-.72.08-1.28-.19-1.68-.27-.4-.82-.804-1.64-1.216-1.16-.46-2-1.02-2.51-1.66-.5-.64-.64-1.54-.4-2.7.21-1.06.7-1.88 1.46-2.44s1.68-.85 2.74-.85c1.17 0 2.06.37 2.69 1.11.63.74.82 1.75.57 3.03h-1.86c.16-.82.09-1.48-.22-1.96s-.8-.73-1.47-.73c-.47 0-.91.18-1.3.54-.39.36-.64.8-.74 1.3-.15.74-.09 1.3.17 1.67s.85.78 1.77 1.22c1.14.48 1.947 1.04 2.42 1.68.48.65.6 1.55.376 2.7-.22 1.09-.713 1.914-1.48 2.46-.765.55-1.7.82-2.8.82-1.15 0-2.11-.33-2.87-.99-.762-.66-.99-1.686-.682-3.076l.02-.05h1.78c-.2 1.01-.09 1.71.34 2.105.43.393 1 .59 1.7.59.48 0 .93-.177 1.35-.53.43-.353.7-.79.8-1.315zm15.71-2.427c-.36 1.804-1.02 3.203-1.96 4.2-.94.996-2.09 1.494-3.43 1.494-1.23 0-2.2-.558-2.9-1.675s-.88-2.49-.56-4.12l.47-2.33c.36-1.8 1-3.21 1.91-4.21.92-1 2.04-1.5 3.35-1.5 1.26 0 2.26.56 2.98 1.69.73 1.12.93 2.5.61 4.12l-.46 2.31zm-1.37-2.333c.26-1.316.2-2.365-.19-3.146s-1-1.17-1.86-1.17c-.72 0-1.35.39-1.91 1.16-.55.77-.95 1.79-1.21 3.05l-.47 2.35c-.26 1.34-.22 2.4.14 3.17.36.78.95 1.17 1.76 1.17.75 0 1.42-.39 2-1.16s1.01-1.8 1.27-3.07l.47-2.33zm4.96 2.04l-1.15 5.793h-1.86l2.69-13.42h4.02c1.14 0 1.99.34 2.56 1.01.57.67.74 1.607.5 2.812-.15.756-.43 1.39-.84 1.904-.41.512-.94.907-1.6 1.184.573.24.955.634 1.146 1.178.19.545.215 1.202.067 1.972l-.23 1.172c-.09.43-.132.82-.123 1.162s.09.62.25.822l-.043.212h-1.91c-.16-.203-.23-.508-.207-.915.023-.405.085-.84.184-1.302l.23-1.13c.15-.79.114-1.4-.117-1.81-.23-.41-.627-.62-1.187-.62h-2.37zm.29-1.42h2.07c.66 0 1.21-.21 1.65-.63.44-.42.74-.996.88-1.73.17-.812.13-1.42-.11-1.825-.24-.403-.69-.605-1.36-.605h-2.16l-.96 4.788zM18.81 82.712h-4.716l-1.19 5.98H11.05l2.685-13.436h7.335l-.286 1.44h-5.48l-.923 4.594h4.72l-.28 1.424zm2.794 5.98h-1.846l2.686-13.435h1.845L21.6 88.692zm4.344-1.42h4.964l-.286 1.42h-6.82l2.686-13.435h1.854L25.948 87.27zm8.007 0h4.964l-.29 1.42h-6.82L34.5 75.26h1.854l-2.4 12.014zm13.682-4.827h-4.715l-.96 4.826h5.473l-.286 1.42h-7.33l2.68-13.43h7.27l-.29 1.44h-5.41l-.87 4.33h4.71l-.29 1.42zm3.773.452l-1.154 5.795h-1.854l2.685-13.426H55.1c1.138 0 1.992.335 2.56 1.005.57.67.735 1.61.495 2.82-.154.76-.435 1.39-.844 1.91-.4.52-.93.91-1.59 1.19.57.24.96.64 1.15 1.18.19.55.21 1.2.07 1.97l-.23 1.18c-.09.43-.13.82-.12 1.166s.1.62.26.82l-.04.21H54.9c-.16-.2-.227-.51-.2-.915.022-.407.084-.84.183-1.304l.23-1.137c.154-.796.116-1.4-.115-1.818-.23-.412-.626-.62-1.186-.62h-2.37zm.285-1.42h2.067c.658 0 1.207-.21 1.647-.63.44-.418.73-.995.88-1.728.16-.82.13-1.43-.11-1.83-.24-.41-.7-.61-1.37-.61h-2.16l-.96 4.78zm13.037 4.142c.14-.72.077-1.28-.194-1.68-.27-.4-.818-.81-1.643-1.22-1.17-.47-2.005-1.02-2.51-1.67-.504-.65-.64-1.54-.406-2.7.2-1.07.69-1.88 1.45-2.45s1.67-.85 2.74-.85c1.16 0 2.06.37 2.69 1.11.63.74.82 1.75.57 3.02h-1.85c.16-.83.08-1.48-.22-1.97-.31-.49-.8-.73-1.47-.73-.48 0-.91.18-1.31.54-.4.36-.65.79-.75 1.293-.15.734-.09 1.29.17 1.67.26.37.85.78 1.76 1.214 1.133.473 1.94 1.032 2.42 1.68.48.644.6 1.542.37 2.692-.22 1.09-.715 1.913-1.48 2.46-.767.546-1.7.82-2.8.82-1.15 0-2.11-.33-2.87-.99-.764-.66-.99-1.69-.684-3.08l.02-.045h1.78c-.2 1.01-.09 1.71.34 2.1.42.393.99.59 1.7.59.47 0 .92-.177 1.35-.53.43-.353.69-.79.8-1.315zM0 0h120v1H0zm0 119h120v1H0z" fill="#FFF"/></svg>