<svg xmlns="http://www.w3.org/2000/svg" viewBox="0 0 120 120"><path d="M60 119C31.777 119 8.817 96.04 8.817 67.817S31.777 16.634 60 16.634c28.222 0 51.183 22.96 51.183 51.183S88.223 119 60 119zm0-91.654c-22.315 0-40.47 18.155-40.47 40.47 0 22.315 18.155 40.47 40.47 40.47 22.315 0 40.47-18.155 40.47-40.47 0-22.315-18.155-40.47-40.47-40.47z" fill="#FFF"/><path d="M75.6 75.84v10.255c0 1.486-.218 2.92-.617 4.28l13.633 13.633 7.575-7.575L75.6 75.84zM44.4 57.3c-1.123-1.305-1.785-2.993-1.785-4.77v-4.7c0-1.418.412-2.74 1.112-3.863L31.383 31.624 23.808 39.2 44.4 59.792v-2.49zm25.655-12.29H49.943c-1.55 0-2.82 1.27-2.82 2.82v4.7c0 1.196.76 2.217 1.816 2.625-.01.19-.03.377-.03.57v30.37c0 5.892 4.82 10.713 10.71 10.713h.75c5.89 0 10.71-4.82 10.71-10.713v-30.37c0-.192-.02-.38-.03-.57 1.06-.407 1.81-1.428 1.81-2.624v-4.7c0-1.55-1.27-2.82-2.82-2.82zm-3.477 41.085c0 3.42-2.782 6.202-6.202 6.202h-.752c-3.42 0-6.202-2.782-6.202-6.202V69.21H66.58l-.002 16.885z" fill="#FFF"/><circle cx="63.853" cy="73.51" r=".493" fill="#FFF"/><path d="M65.106 79.705c0 .58-.47 1.05-1.05 1.05-.58 0-1.05-.47-1.05-1.05s.47-1.05 1.05-1.05c.58 0 1.05.47 1.05 1.05z" fill="#FFF"/><circle cx="58.496" cy="82.814" r=".705" fill="#FFF"/><circle cx="58.285" cy="76.823" r="1.198" fill="#FFF"/><path d="M57.36 71.4c0 .27-.218.488-.488.488s-.49-.22-.49-.49.22-.488.49-.488.49.22.49.49z" fill="#FFF"/><circle cx="62.091" cy="87.606" r="1.269" fill="#FFF"/><path d="M29.29 20.993c-.49 1.24-1.408 2.397-2.753 3.466-1.49 1.18-2.994 1.7-4.51 1.56-1.517-.14-2.85-.94-4.003-2.39-1.16-1.46-1.633-3.02-1.424-4.69.21-1.67 1.094-3.12 2.654-4.36.983-.78 1.957-1.34 2.923-1.66l1.558 1.96c-1.044.15-2.084.64-3.118 1.46-.866.69-1.348 1.53-1.446 2.527-.09 1 .23 1.966.98 2.906.76.952 1.59 1.495 2.49 1.627.91.137 1.77-.13 2.61-.79.5-.4.84-.784 1.02-1.16l-1.44-1.81-1.85 1.477-1.32-1.665 3.948-3.136 3.706 4.66zm14.057-6.01l-2.397 1.093-2.94-6.448c-.318-.696-.64-1.48-.963-2.348l-.06.027c.176.718.28 1.246.313 1.582l.817 8.47-1.984.9-5.878-6.08c-.16-.17-.5-.62-1.024-1.35l-.06.03c.55 1.03 1.01 1.95 1.38 2.75l2.72 5.96-2.18.99L26.16 9.8l3.555-1.62 5.115 5.38c.405.43.77.886 1.083 1.365l.045-.02c-.138-.66-.23-1.243-.28-1.75l-.707-7.38 3.47-1.58 4.92 10.777zm6.95-1.066c-1.67.297-3.126-.005-4.37-.905s-2.024-2.223-2.334-3.97c-.328-1.842-.058-3.428.808-4.757.87-1.328 2.18-2.15 3.95-2.462 1.67-.296 3.11.01 4.33.917 1.22.907 1.99 2.253 2.31 4.036.33 1.833.06 3.404-.81 4.716-.86 1.313-2.15 2.12-3.87 2.425zm-1.627-9.82c-.92.165-1.592.64-2.01 1.428-.42.787-.53 1.75-.326 2.89.205 1.154.638 2.02 1.3 2.596.662.58 1.432.79 2.31.63.905-.16 1.565-.61 1.98-1.36.416-.74.52-1.7.315-2.86-.22-1.21-.64-2.1-1.28-2.68-.64-.58-1.4-.79-2.3-.63zm20.936-.325l-4.163-.37-.26 2.895 3.827.34-.193 2.157-3.825-.342-.41 4.582-2.656-.238L62.98 1l6.82.61-.194 2.162zm10.18 12.423l-2.96-.792-.992-3.42c-.074-.26-.148-.493-.224-.7-.075-.21-.16-.392-.25-.55-.092-.16-.197-.29-.315-.393-.118-.102-.257-.175-.416-.218l-.7-.186-1.17 4.38-2.58-.688 3.06-11.443 4.08 1.092c2.77.743 3.89 2.15 3.33 4.226-.11.4-.27.75-.48 1.056-.22.3-.47.56-.77.77-.3.21-.63.37-1 .48-.37.11-.76.17-1.18.18l-.01.03c.154.1.3.23.424.39s.243.34.35.54c.106.2.203.41.29.63.086.22.162.43.23.63l1.253 3.96zm-4.48-11.39l-.85 3.185 1.116.3c.553.147 1.04.106 1.46-.124.428-.233.706-.59.834-1.068.267-1-.198-1.66-1.394-1.98l-1.165-.312zM86.738 19.62l-6.44-2.996 4.997-10.74 6.193 2.883-.916 1.97-3.775-1.757-1.11 2.39 3.51 1.633-.912 1.962-3.512-1.634-1.143 2.46 4.02 1.87-.912 1.97zm7.142 4.732l-5.9-3.958 6.6-9.835 5.673 3.8-1.21 1.8-3.457-2.32-1.47 2.19 3.218 2.15-1.205 1.79-3.22-2.16-1.51 2.25 3.68 2.47-1.21 1.8z" fill="#FFF"/></svg>