<?xml version="1.0" encoding="utf-8"?>
<!-- Generator: Adobe Illustrator 22.0.0, SVG Export Plug-In . SVG Version: 6.00 Build 0)  -->
<svg version="1.1" id="Layer_1" xmlns="http://www.w3.org/2000/svg" xmlns:xlink="http://www.w3.org/1999/xlink" x="0px" y="0px"
	 viewBox="0 0 120 120" style="enable-background:new 0 0 120 120;" xml:space="preserve">
<path style="fill:#FFFFFF;" d="M12.835,41.054h-2.123L7.517,29.044l-0.064,0.012L5.186,41.054H3.057l3.084-16.361H8.27l3.199,11.964
	l0.058-0.012l2.244-11.956h2.118l-3.084,16.363L12.835,41.054z M26.263,34.358c-0.417,2.194-1.17,3.896-2.26,5.11
	c-1.09,1.214-2.405,1.82-3.95,1.82c-1.422,0-2.536-0.679-3.339-2.039c-0.803-1.36-1.017-3.032-0.642-5.016l0.541-2.831
	c0.411-2.194,1.144-3.9,2.198-5.117c1.055-1.217,2.339-1.826,3.855-1.826c1.45,0,2.593,0.682,3.429,2.045s1.07,3.044,0.702,5.016
	l-0.532,2.812L26.263,34.358z M24.683,31.515c0.297-1.602,0.224-2.879-0.219-3.83c-0.443-0.951-1.154-1.437-2.138-1.437
	c-0.828,0-1.56,0.463-2.198,1.412c-0.636,0.937-1.101,2.179-1.39,3.713l-0.541,2.849c-0.306,1.619-0.253,2.91,0.159,3.859
	c0.41,0.937,1.086,1.412,2.027,1.412c0.863,0,1.632-0.475,2.303-1.424c0.672-0.95,1.158-2.191,1.454-3.75l0.541-2.84V31.515z
	 M38.49,36.918h-4.607l-1.847,4.135h-2.155l7.612-16.363h2.048l1.392,16.351h-2.155l-0.288-4.139L38.49,36.918z M34.7,35.109h3.663
	l-0.467-6.964l-0.063-0.012L34.7,35.109z M45.591,33.998l-1.327,7.055h-2.132l3.088-16.351h4.618c1.309,0,2.292,0.402,2.946,1.217
	c0.656,0.816,0.846,1.948,0.57,3.421c-0.177,0.913-0.501,1.692-0.971,2.313c-0.472,0.621-1.082,1.108-1.841,1.437
	c0.656,0.292,1.093,0.767,1.312,1.424c0.219,0.657,0.242,1.461,0.069,2.398l-0.265,1.424c-0.115,0.524-0.161,0.998-0.15,1.412
	s0.104,0.755,0.288,0.998l-0.058,0.258h-2.198c-0.184-0.251-0.265-0.621-0.23-1.118c0.023-0.497,0.092-1.023,0.207-1.589
	l0.265-1.384c0.178-0.968,0.135-1.704-0.131-2.212c-0.265-0.505-0.719-0.758-1.363-0.758h-2.715L45.591,33.998z M45.921,32.269
	h2.378c0.748,0,1.381-0.256,1.887-0.767c0.506-0.509,0.84-1.211,1.013-2.104c0.184-0.99,0.15-1.731-0.127-2.223
	c-0.276-0.491-0.805-0.737-1.576-0.737H47.01l-1.105,5.829L45.921,32.269z M63.902,26.449h-3.746l-2.761,14.604h-2.122l2.761-14.61
	h-3.728l0.329-1.753h9.596l-0.328,1.753L63.902,26.449z M64.707,41.054h-2.124l3.09-16.358h2.123
	C67.797,24.696,64.707,41.054,64.707,41.054z M76.172,33.774h-5.424l-1.369,7.278h-2.134l3.089-16.357h8.44l-0.329,1.753h-6.317
	l-1.07,5.593h5.419l-0.334,1.731L76.172,33.774z M79.387,41.054h-2.124l3.091-16.358h2.123
	C82.476,24.696,79.387,41.054,79.387,41.054z M92.02,35.896l0.023,0.067c-0.414,1.7-1.059,3.013-1.933,3.937
	c-0.879,0.925-2.022,1.388-3.429,1.388c-1.389,0-2.485-0.674-3.287-2.021c-0.794-1.349-1.013-3.012-0.621-4.989l0.552-2.922
	c0.414-2.191,1.128-3.891,2.14-5.094c1.013-1.202,2.244-1.802,3.682-1.802c1.392,0,2.462,0.506,3.233,1.522s1.047,2.374,0.851,4.082
	h-2.117c0.127-1.23,0.023-2.179-0.334-2.849c-0.345-0.67-0.966-1.004-1.841-1.004c-0.759,0-1.461,0.48-2.094,1.437
	c-0.633,0.962-1.093,2.188-1.369,3.687l-0.552,2.943c-0.311,1.611-0.288,2.893,0.081,3.847c0.368,0.955,0.99,1.433,1.887,1.433
	c0.771,0,1.404-0.296,1.887-0.889c0.483-0.593,0.897-1.516,1.238-2.773h2.037L92.02,35.896z M95.064,41.054H92.94l3.09-16.358h2.123
	C98.153,24.696,95.064,41.054,95.064,41.054z M105.264,36.918h-4.607l-1.846,4.136h-2.156l7.612-16.358h2.048l1.392,16.357h-2.155
	l-0.299-4.139L105.264,36.918z M101.474,35.109h3.663l-0.467-6.964l-0.063-0.012L101.474,35.109z M111.369,39.322h5.71l-0.329,1.729
	h-7.836l3.095-16.355h2.14l-2.761,14.627L111.369,39.322z M13.154,62.284l0.023,0.066c-0.412,1.704-1.056,3.019-1.933,3.945
	c-0.878,0.925-2.02,1.388-3.429,1.388c-1.388,0-2.483-0.67-3.286-2.021s-1.013-3.007-0.633-4.992l0.552-2.922
	c0.412-2.191,1.123-3.884,2.136-5.089c1.013-1.193,2.24-1.802,3.684-1.802c1.388,0,2.462,0.511,3.227,1.522
	c0.765,1.011,1.047,2.374,0.851,4.091h-2.106c0.127-1.23,0.023-2.179-0.334-2.849c-0.345-0.67-0.967-0.998-1.841-0.998
	c-0.759,0-1.461,0.487-2.094,1.437C7.34,55.02,6.88,56.25,6.603,57.747l-0.552,2.946c-0.311,1.607-0.288,2.898,0.081,3.847
	c0.368,0.962,0.99,1.437,1.887,1.437c0.771,0,1.404-0.295,1.887-0.889c0.483-0.594,0.897-1.515,1.243-2.776h2.037L13.154,62.284z
	 M24.968,60.741c-0.418,2.196-1.171,3.9-2.261,5.113c-1.09,1.213-2.405,1.819-3.95,1.819c-1.422,0-2.536-0.679-3.339-2.039
	c-0.803-1.36-1.017-3.032-0.642-5.016l0.541-2.837c0.411-2.191,1.144-3.908,2.198-5.126c1.055-1.217,2.339-1.826,3.855-1.826
	c1.45,0,2.593,0.682,3.429,2.058c0.835,1.364,1.07,3.044,0.702,5.016l-0.532,2.812L24.968,60.741z M23.387,57.901
	c0.297-1.602,0.224-2.879-0.219-3.83c-0.443-0.951-1.154-1.424-2.138-1.424c-0.828,0-1.56,0.475-2.198,1.412
	c-0.636,0.937-1.101,2.179-1.39,3.713L16.9,60.633c-0.305,1.631-0.251,2.922,0.161,3.859c0.408,0.95,1.085,1.424,2.025,1.424
	c0.863,0,1.634-0.475,2.305-1.412c0.671-0.937,1.158-2.191,1.454-3.738l0.541-2.837L23.387,57.901z M28.099,65.708h5.712
	l-0.329,1.729h-7.836l3.095-16.356h2.14l-2.774,14.627L28.099,65.708z M45.178,60.741c-0.418,2.196-1.171,3.9-2.261,5.113
	c-1.09,1.213-2.405,1.819-3.95,1.819c-1.427,0-2.543-0.679-3.348-2.039c-0.805-1.36-1.024-3.032-0.644-5.016l0.541-2.837
	c0.403-2.191,1.139-3.908,2.198-5.126c1.047-1.217,2.336-1.826,3.854-1.826c1.45,0,2.589,0.682,3.429,2.058
	c0.828,1.364,1.07,3.044,0.702,5.016l-0.529,2.812L45.178,60.741z M43.597,57.901c0.297-1.602,0.224-2.879-0.219-3.83
	c-0.443-0.951-1.154-1.424-2.138-1.424c-0.828,0-1.56,0.475-2.198,1.412c-0.636,0.937-1.101,2.179-1.39,3.713l-0.541,2.861
	c-0.306,1.631-0.253,2.922,0.159,3.859c0.41,0.95,1.086,1.424,2.027,1.424c0.863,0,1.632-0.475,2.303-1.412
	c0.672-0.937,1.151-2.191,1.45-3.738l0.541-2.837L43.597,57.901z M49.307,60.384l-1.327,7.054h-2.133L48.936,51.1h4.618
	c1.309,0,2.292,0.414,2.946,1.23c0.656,0.816,0.846,1.96,0.57,3.433c-0.177,0.925-0.501,1.692-0.971,2.325
	c-0.472,0.621-1.082,1.108-1.832,1.449c0.658,0.292,1.098,0.774,1.317,1.437c0.219,0.664,0.253,1.461,0.081,2.398L55.4,64.801
	c-0.104,0.524-0.15,0.998-0.138,1.412c0.012,0.414,0.115,0.755,0.299,0.998l-0.046,0.256h-2.198c-0.184-0.243-0.253-0.621-0.23-1.11
	c0.035-0.491,0.104-1.023,0.219-1.583l0.265-1.383c0.173-0.969,0.135-1.704-0.131-2.216c-0.265-0.499-0.72-0.755-1.365-0.755h-2.738
	L49.307,60.384z M49.636,58.656h2.382c0.759,0,1.392-0.256,1.898-0.767c0.506-0.511,0.851-1.213,1.013-2.106
	c0.196-0.989,0.15-1.729-0.127-2.222c-0.276-0.491-0.794-0.737-1.565-0.737h-2.486l-1.105,5.829L49.636,58.656z M64.64,63.696
	c0.161-0.877,0.092-1.558-0.219-2.045c-0.311-0.487-0.943-0.979-1.887-1.48c-1.335-0.56-2.301-1.242-2.888-2.021
	c-0.575-0.779-0.736-1.875-0.46-3.287c0.242-1.291,0.805-2.289,1.68-2.971s1.933-1.035,3.153-1.035c1.346,0,2.37,0.45,3.095,1.351
	c0.725,0.901,0.943,2.131,0.656,3.689h-2.14c0.184-0.998,0.104-1.802-0.253-2.386s-0.92-0.889-1.691-0.889
	c-0.541,0-1.047,0.219-1.496,0.657c-0.449,0.438-0.736,0.974-0.851,1.583c-0.173,0.901-0.104,1.583,0.196,2.033
	c0.299,0.45,0.978,0.95,2.037,1.485c1.312,0.584,2.24,1.266,2.784,2.045c0.552,0.791,0.69,1.887,0.433,3.287
	c-0.253,1.327-0.82,2.33-1.703,2.995c-0.88,0.67-1.956,0.998-3.222,0.998c-1.323,0-2.428-0.402-3.302-1.205
	c-0.877-0.804-1.139-2.053-0.785-3.745l0.023-0.061h2.048c-0.23,1.23-0.104,2.082,0.391,2.563c0.495,0.478,1.151,0.718,1.956,0.718
	c0.552,0,1.07-0.215,1.553-0.645c0.495-0.43,0.805-0.962,0.92-1.601L64.64,63.696z M82.715,60.741
	c-0.414,2.196-1.174,3.9-2.255,5.113c-1.082,1.213-2.405,1.819-3.947,1.819c-1.415,0-2.531-0.679-3.337-2.039
	c-0.805-1.36-1.013-3.032-0.644-5.016l0.541-2.837c0.414-2.191,1.151-3.908,2.198-5.126c1.059-1.217,2.347-1.826,3.854-1.826
	c1.45,0,2.6,0.682,3.429,2.058c0.84,1.364,1.07,3.044,0.702,5.016l-0.529,2.812L82.715,60.741z M81.139,57.901
	c0.299-1.602,0.23-2.879-0.219-3.83c-0.449-0.951-1.151-1.424-2.14-1.424c-0.828,0-1.553,0.475-2.198,1.412
	c-0.633,0.937-1.093,2.179-1.392,3.713l-0.541,2.861c-0.299,1.631-0.253,2.922,0.161,3.859c0.414,0.95,1.093,1.424,2.025,1.424
	c0.863,0,1.634-0.475,2.301-1.412c0.667-0.937,1.162-2.191,1.461-3.738l0.541-2.837L81.139,57.901z M86.846,60.384l-1.323,7.053
	h-2.14l3.095-16.339h4.625c1.312,0,2.29,0.414,2.946,1.23c0.656,0.816,0.851,1.957,0.575,3.424c-0.173,0.92-0.495,1.692-0.966,2.318
	c-0.472,0.623-1.082,1.104-1.841,1.442c0.659,0.292,1.099,0.772,1.319,1.434c0.219,0.664,0.247,1.463,0.077,2.401l-0.265,1.427
	c-0.104,0.524-0.152,0.998-0.142,1.415c0.01,0.416,0.104,0.755,0.288,1.001l-0.049,0.258h-2.198
	c-0.184-0.247-0.265-0.618-0.238-1.114c0.026-0.493,0.098-1.023,0.212-1.585l0.265-1.376c0.173-0.962,0.131-1.704-0.135-2.204
	c-0.265-0.499-0.721-0.755-1.366-0.755h-2.727L86.846,60.384z M87.18,58.656h2.382c0.759,0,1.392-0.256,1.898-0.767
	c0.506-0.511,0.851-1.213,1.013-2.106c0.196-0.989,0.15-1.729-0.127-2.222c-0.276-0.491-0.794-0.737-1.565-0.737h-2.485
	l-1.105,5.829L87.18,58.656z M11.987,86.542H6.561l-1.369,7.281H3.058l3.089-16.358h8.44l-0.329,1.753H7.953l-1.062,5.593h5.431
	L12,86.545L11.987,86.542z M15.202,93.823h-2.124l3.091-16.357h2.123l-3.094,16.357H15.202z M20.2,92.094h5.712l-0.329,1.729h-7.847
	l3.091-16.357h2.133L20.2,92.092V92.094z M29.413,92.094h5.712l-0.334,1.729h-7.847l3.096-16.353h2.133l-2.761,14.627L29.413,92.094
	z M45.155,86.217H39.73l-1.105,5.876h6.297l-0.329,1.729H36.16l3.084-16.351h8.365l-0.334,1.753H41.05l-1.001,5.272h5.419
	l-0.334,1.729L45.155,86.217z M49.497,86.767l-1.328,7.055h-2.133l3.089-16.346h4.617c1.309,0,2.292,0.408,2.946,1.224
	c0.656,0.816,0.846,1.96,0.57,3.433c-0.177,0.925-0.501,1.692-0.971,2.325c-0.46,0.633-1.07,1.108-1.829,1.449
	c0.656,0.292,1.105,0.779,1.323,1.437c0.219,0.67,0.242,1.461,0.081,2.398l-0.265,1.437c-0.104,0.524-0.15,0.998-0.138,1.42
	c0.012,0.421,0.115,0.755,0.299,0.998l-0.046,0.256h-2.199c-0.184-0.243-0.261-0.621-0.23-1.114
	c0.025-0.496,0.097-1.023,0.211-1.588l0.265-1.384c0.177-0.969,0.133-1.704-0.132-2.213c-0.265-0.502-0.72-0.755-1.365-0.755h-2.727
	L49.497,86.767z M49.825,85.039h2.378c0.757,0,1.389-0.256,1.895-0.767c0.506-0.509,0.84-1.211,1.013-2.104
	c0.184-0.998,0.15-1.741-0.127-2.228c-0.276-0.499-0.805-0.743-1.576-0.743h-2.485l-1.105,5.82L49.825,85.039z M64.825,90.081
	c0.161-0.877,0.089-1.558-0.223-2.045c-0.311-0.487-0.941-0.986-1.89-1.485c-1.346-0.572-2.307-1.242-2.888-2.033
	c-0.58-0.791-0.736-1.875-0.467-3.287c0.23-1.303,0.794-2.289,1.668-2.983s1.921-1.035,3.153-1.035c1.335,0,2.37,0.45,3.095,1.351
	c0.725,0.901,0.943,2.131,0.656,3.677h-2.129c0.184-1.011,0.092-1.802-0.253-2.398c-0.357-0.597-0.92-0.889-1.691-0.889
	c-0.552,0-1.047,0.219-1.507,0.657c-0.46,0.438-0.748,0.962-0.863,1.574c-0.173,0.894-0.104,1.571,0.196,2.033
	c0.299,0.45,0.978,0.95,2.025,1.478c1.304,0.576,2.232,1.256,2.784,2.045c0.552,0.784,0.69,1.877,0.426,3.277
	c-0.253,1.327-0.823,2.329-1.703,2.995c-0.883,0.665-1.956,0.998-3.222,0.998c-1.323,0-2.428-0.402-3.302-1.205
	c-0.879-0.804-1.139-2.058-0.787-3.75l0.023-0.055h2.048c-0.23,1.23-0.104,2.082,0.391,2.557c0.483,0.478,1.139,0.718,1.956,0.718
	c0.541,0,1.059-0.215,1.553-0.645c0.495-0.43,0.794-0.962,0.92-1.601L64.825,90.081z M0,0h120v1H0V0z M0,119h120v1H0V119z"/>
</svg>
