<svg xmlns="http://www.w3.org/2000/svg" viewBox="0 0 180 180"><linearGradient id="a" gradientUnits="userSpaceOnUse" y1="98.482" x2="180" y2="98.482"><stop offset="0" stop-color="#A00000"/><stop offset="1" stop-color="#800"/></linearGradient><path fill="url(#a)" d="M0 67.936h180v61.093H0z"/><path fill="#F00" d="M0 63.628v63.594l124.012-48.026L150.25 5.442M180 129.016V67.923L65.13 112.408V173.5"/><path d="M40.05 95.36l-7.512-28.794 6.983-2.627c1.03-.39 1.96-.67 2.81-.85.84-.18 1.677-.24 2.5-.18.82.057 1.548.272 2.176.64.628.367 1.196.94 1.704 1.714.3.46.56.983.783 1.573.16.424.297.874.414 1.352.866 3.486.02 5.953-2.54 7.4 3.02-.59 5.138.73 6.35 3.96.15.39.28.803.395 1.244.75 2.81.62 5.174-.39 7.1-1.013 1.924-2.827 3.38-5.445 4.365l-8.22 3.09zm1.058-19.24l1.387-.523c1.415-.53 2.298-1.217 2.65-2.055s.337-1.985-.045-3.444c-.066-.242-.14-.47-.22-.68-.36-.958-.87-1.54-1.534-1.75-.808-.254-1.948-.106-3.418.447l-.82.308 2 7.696zm3.425 13.11l1.587-.598c1.437-.54 2.34-1.264 2.71-2.173.37-.91.35-2.15-.065-3.73-.102-.41-.218-.786-.348-1.13-.398-1.06-.9-1.78-1.5-2.164-.787-.505-1.91-.48-3.37.067l-1.42.534 2.406 9.182zm15.03-1.21l-7.51-28.794 11.98-4.506 1.042 3.992-6.45 2.426 2.018 7.748 5.03-1.89 1.056 4.025-5.03 1.9L64.06 82l6.535-2.46 1.024 3.943-12.06 4.537zm22.107-7.896c-2.56.963-4.667.943-6.317-.066-1.403-.856-2.536-2.415-3.398-4.672-.15-.4-.293-.83-.427-1.287l4.55-2.71c.145.52.3.99.462 1.43.967 2.57 2.225 3.57 3.774 2.98.68-.255 1.113-.666 1.3-1.232.19-.567.19-1.21.01-1.93-.057-.22-.122-.425-.193-.613-.18-.527-.44-.995-.77-1.404-.432-.55-.9-.972-1.4-1.274-.5-.3-1.18-.634-2.04-.995l-3.82-1.634c-1.394-.593-2.52-1.32-3.377-2.18-.62-.63-1.133-1.474-1.542-2.53-.14-.376-.267-.78-.377-1.21-.606-2.314-.414-4.353.576-6.12.99-1.763 2.63-3.083 4.92-3.956l.115-.044c1.026-.385 1.965-.573 2.82-.565.893.008 1.648.167 2.266.474.62.31 1.185.763 1.697 1.365.513.6.928 1.224 1.246 1.866.207.42.4.88.577 1.385.1.267.2.55.302.858l-4.55 2.605c-.18-.58-.36-1.11-.54-1.59-.084-.22-.173-.44-.27-.66-.264-.64-.63-1.1-1.09-1.38-.413-.25-.893-.276-1.44-.07l-.15.055c-.645.28-1.083.722-1.314 1.324-.23.602-.258 1.244-.077 1.926.04.175.09.347.15.514.174.46.408.86.704 1.207.395.476.772.82 1.132 1.034.36.216.874.47 1.544.764l3.773 1.61c.777.346 1.464.703 2.062 1.075.597.372 1.19.83 1.783 1.37.59.54 1.105 1.185 1.54 1.94.25.425.465.88.645 1.356.14.37.26.756.36 1.16.548 2.1.345 4.06-.61 5.887-.95 1.828-2.485 3.14-4.602 3.935zm12.544-5.137l-6.397-24.56-4.477 1.684-1.1-4.23 14.37-5.403 1.115 4.233-4.378 1.646 6.396 24.56-5.53 2.08zM92.04 145.24l-10.815-22.614 4.062-1.52 7.152 15.622-1.68-17.672 4.23-1.584 1.74 26.008-4.7 1.76zm9.69-3.628l-1.69-26.03 5.076-1.9 10.886 22.585-4.33 1.622-2.293-5.1-3.77 1.41.53 5.75-4.42 1.653zm3.553-10.61l2.85-1.068-3.945-9.2L105.283 131zm13.033 4.398l-6.302-24.302 4.668-1.748 5.442 20.974 5.487-2.055.86 3.32-10.15 3.802zm18.987-6.755c-1.307.49-2.455.716-3.445.68-.99-.038-1.815-.32-2.478-.842-.663-.524-1.24-1.257-1.73-2.198-.223-.422-.427-.88-.614-1.38-.23-.61-.43-1.275-.602-1.993l-4.25-16.372 4.57-1.71 4.41 16.97c.104.392.198.73.285 1.02.04.145.09.29.16.437l.17.466c.14.312.284.567.444.765s.342.368.546.51c.204.145.44.22.71.226.27.006.567-.05.887-.17.374-.142.68-.34.91-.6.23-.255.39-.53.48-.822.087-.29.124-.642.11-1.054-.015-.413-.056-.794-.123-1.145-.065-.35-.162-.763-.286-1.24l-4.41-16.973 4.584-1.717 4.235 16.378c.277 1.09.462 2.07.553 2.94.09.87.074 1.72-.05 2.53-.125.817-.382 1.537-.774 2.16-.39.63-.943 1.21-1.654 1.75-.714.536-1.597 1-2.65 1.39zm9.94-4.075l-6.303-24.303 10.113-3.787.876 3.372-5.45 2.038 1.69 6.538 4.243-1.59.887 3.4-4.246 1.59 1.99 7.665 5.513-2.065.86 3.328-10.18 3.813zm11.972-10.933l-6.03-17.907 4.273-1.6 3.252 18.948-1.495.56zm.2 6.374l-1.09-4.23 4.104-1.54 1.08 4.24-4.105 1.54z" fill="#FFF"/></svg>