<svg xmlns="http://www.w3.org/2000/svg" viewBox="0 0 140 140"><circle cx="70" cy="70" r="70" fill="#F00"/><path d="M27.264 72.883v4.883H24.5v-4.883c-4.235-.216-8.254-1.685-10.5-3.76l1.6-3.37c2.03 1.858 5.4 3.24 8.9 3.457V59.187c-4.754-1.168-9.765-2.68-9.765-8.556 0-4.27 3.068-7.99 9.764-8.55v-4.92h2.76v4.88c3.24.13 6.48 1.08 8.77 2.64l-1.43 3.456c-2.335-1.47-4.928-2.29-7.347-2.42V55.78c4.84 1.21 10.023 2.636 10.023 8.555 0 4.275-3.195 7.99-10.02 8.553zm-2.765-17.8V45.75c-3.85.476-5.53 2.42-5.53 4.71 0 2.678 2.41 3.802 5.53 4.622zm8.55 9.504c0-2.765-2.6-3.845-5.79-4.71v9.29c4.02-.39 5.79-2.247 5.79-4.58zm34.84.56h-5.75v7.433h-4.19v-7.432H41.142v-3.024L56.61 42.336h4.666L46.46 61.433h11.62v-6.568h4.062v6.568h5.747v3.715zm2.6-7.69c0-9.85 5.272-15.466 12.357-15.466 7.043 0 12.313 5.62 12.313 15.47s-5.27 15.47-12.31 15.47c-7.086 0-12.357-5.612-12.357-15.462zm20.35 0c0-7.733-3.285-11.62-7.994-11.62-4.753 0-8.037 3.887-8.037 11.62s3.284 11.62 8.037 11.62c4.71.003 7.995-3.885 7.995-11.62zm8.482 0c0-9.85 5.272-15.466 12.357-15.466 7.043 0 12.313 5.62 12.313 15.47s-5.27 15.47-12.312 15.47c-7.085 0-12.356-5.613-12.356-15.463zm20.35 0c0-7.733-3.285-11.62-7.994-11.62-4.753 0-8.037 3.887-8.037 11.62s3.284 11.62 8.037 11.62c4.71.003 7.993-3.885 7.993-11.62zm-70.59 26.63L38.76 107.41h-2.432L26 84.088h2.666l8.93 20.258 8.995-20.258h2.5zm14.772 12.46v10.863H61.59v-2.732c-1.065 1.8-3.13 2.897-6.03 2.897-3.965 0-6.397-2.065-6.397-5.098 0-2.697 1.73-4.965 6.76-4.965h5.565v-1.066c0-2.998-1.7-4.63-4.965-4.63-2.264 0-4.397.8-5.83 2.066l-1.065-1.766c1.767-1.5 4.365-2.366 7.13-2.366 4.53 0 7.097 2.267 7.097 6.797zm-2.367 5.6V99.28H55.99c-3.398 0-4.498 1.334-4.498 3.133 0 2.032 1.633 3.3 4.432 3.3 2.664 0 4.63-1.268 5.563-3.566zm8.81-19.46h2.365v24.723H70.3V82.688zm24.76 7.197v17.526H92.8v-3.2c-1.234 2.133-3.5 3.365-6.298 3.365-4.466 0-7.397-2.5-7.397-7.53v-10.16h2.366v9.93c0 3.73 1.94 5.63 5.27 5.63 3.67 0 5.968-2.367 5.968-6.363v-9.197h2.365zm21.902 9.496H102.3c.265 3.665 3.065 6.1 6.895 6.1 2.13 0 4.03-.77 5.363-2.302l1.337 1.533c-1.566 1.87-3.997 2.87-6.76 2.87-5.47 0-9.2-3.73-9.2-8.93s3.635-8.89 8.564-8.89c4.932 0 8.5 3.634 8.5 8.897 0 .2-.036.467-.036.733zm-14.66-1.766h12.426c-.3-3.432-2.8-5.83-6.23-5.83-3.398 0-5.9 2.398-6.198 5.83z" fill="#FFF"/></svg>